<svg width="24" height="25" viewBox="0 0 24 25" fill="none" xmlns="http://www.w3.org/2000/svg">
<path fill-rule="evenodd" clip-rule="evenodd" d="M11.9362 3.33331C12.6608 3.58916 13.1725 4.48462 13.1725 5.20929C13.1725 5.93418 12.5755 6.53116 11.8935 6.53116C11.1686 6.53116 10.5716 5.93418 10.5716 5.20929C10.5716 4.67375 11.0186 4.19065 11.4169 3.76011C11.5259 3.64234 11.6312 3.5285 11.7227 3.41859C11.808 3.33331 11.8506 3.33331 11.9362 3.33331ZM19.9942 14.4612V21.3255C19.9942 21.4961 19.8236 21.6666 19.6104 21.6666H4.13377C3.92056 21.6666 3.75 21.4961 3.75 21.3255V14.4612C4.34697 14.8876 5.07164 15.1435 5.79654 15.1435C6.56705 15.1435 7.07921 14.6811 7.52503 14.2787C7.86857 13.9685 8.17272 13.6939 8.52533 13.6939C8.87847 13.6939 9.22434 13.9134 9.62955 14.1704C10.2027 14.534 10.8945 14.9729 11.8935 14.9729C12.8623 14.9729 13.5417 14.5386 14.1086 14.1762C14.5147 13.9166 14.863 13.6939 15.2188 13.6939C15.5714 13.6939 15.8756 13.9685 16.2191 14.2787C16.6649 14.6811 17.1771 15.1435 17.9476 15.1435C18.6725 15.1435 19.3972 14.8876 19.9942 14.4612ZM8.86623 5.20929C8.86623 4.48462 8.31213 3.58916 7.62987 3.33331C7.54459 3.33331 7.45931 3.33331 7.41667 3.41859C7.3341 3.50867 7.2436 3.60139 7.15053 3.69675L7.15052 3.69675C6.71487 4.1431 6.22272 4.64732 6.22272 5.20929C6.22272 5.93418 6.81969 6.53116 7.54459 6.53116C8.26948 6.53116 8.86623 5.93418 8.86623 5.20929ZM16.2848 3.33331C16.9671 3.58916 17.5214 4.48462 17.5214 5.20929C17.5214 5.93418 16.9245 6.53116 16.1996 6.53116C15.4749 6.53116 14.9206 5.93418 14.9206 5.20929C14.9206 4.63033 15.4429 4.08194 15.8615 3.6425C15.936 3.56426 16.0072 3.48948 16.0716 3.41859C16.1143 3.33331 16.1996 3.33331 16.2848 3.33331ZM6.39329 7.72487V11.3489C5.15692 11.3489 4.04849 12.2441 3.79264 13.4807C4.30433 14.0348 5.07164 14.376 5.79654 14.376C6.2839 14.376 6.64554 14.0471 7.0243 13.7026C7.44069 13.3239 7.87777 12.9264 8.52533 12.9264C9.11012 12.9264 9.55187 13.2125 10.0175 13.5141C10.5362 13.8502 11.0846 14.2054 11.8935 14.2054C12.6811 14.2054 13.2311 13.849 13.7505 13.5125C14.2151 13.2115 14.6552 12.9264 15.2188 12.9264C15.8729 12.9264 16.3242 13.332 16.7494 13.7141C17.1279 14.0543 17.4858 14.376 17.9476 14.376C18.6725 14.376 19.4398 14.0348 19.9515 13.4807C19.6957 12.2441 18.6299 11.3489 17.3509 11.3489V7.72487C17.3509 7.63959 17.2654 7.55431 17.1374 7.55431H15.2615C15.1338 7.55431 15.0485 7.63959 15.0485 7.72487V11.3489H13.0019V7.72487C13.0019 7.63959 12.9167 7.55431 12.8314 7.55431H10.9128C10.8275 7.55431 10.7422 7.63959 10.7422 7.72487V11.3489H8.69567V7.72487C8.69567 7.63959 8.61039 7.55431 8.48269 7.55431H6.60672C6.47879 7.55431 6.39329 7.63959 6.39329 7.72487Z" fill="#4D4751"/>
</svg>
