<svg width="28" height="25" viewBox="0 0 28 25" fill="none" xmlns="http://www.w3.org/2000/svg">
<path d="M23.2653 17.3149C21.9402 16.6584 21.4613 14.6646 21.4613 13.4819V11.4785C21.4655 9.1726 19.9046 7.10224 17.5341 6.26972V6.1973C17.5397 4.5663 16.1364 3.21694 14.3413 3.12705C13.441 3.09688 12.566 3.40037 11.9175 3.96769C11.2691 4.53501 10.903 5.31729 10.9036 6.13455V6.26489C8.52719 7.09492 6.96109 9.16841 6.96579 11.4785V13.4867C6.96579 14.2109 6.83807 16.6342 5.19376 17.3052C4.80117 17.4692 4.54972 17.8255 4.54987 18.2176V19.1155C4.54987 19.5928 4.97633 19.9796 5.5024 19.9796H10.9994C11.4975 21.2022 12.7822 22.0139 14.2189 22.0139C15.6556 22.0139 16.9403 21.2022 17.4383 19.9796H22.93C23.2011 19.9753 23.4578 19.8687 23.6386 19.6855C23.8194 19.5023 23.9078 19.259 23.8826 19.0142V18.2176C23.875 17.8368 23.6381 17.4902 23.2653 17.3149Z" fill="#4D4751"/>
</svg>
