<svg width="24" height="25" viewBox="0 0 24 25" fill="none" xmlns="http://www.w3.org/2000/svg">
<path fill-rule="evenodd" clip-rule="evenodd" d="M14.8196 8.85141C16.0646 8.85141 17.0797 7.61505 17.0797 6.09236C17.0797 4.56968 16.0603 3.33331 14.8196 3.33331C13.5789 3.33331 12.5594 4.56968 12.5594 6.09236C12.5594 7.61505 13.5659 8.85141 14.8196 8.85141ZM7.35366 10.9554C7.35366 9.43272 6.33854 8.19636 5.09349 8.19636C3.84845 8.19636 2.83333 9.43272 2.83333 10.9554C2.83333 12.4781 3.84845 13.7101 5.09349 13.7101C6.33854 13.7101 7.35366 12.4738 7.35366 10.9554ZM21.1667 10.953C21.1667 12.4757 20.1515 13.7121 18.9065 13.7121C17.6528 13.7121 16.6463 12.4757 16.6463 10.953C16.6463 9.43036 17.6658 8.19399 18.9065 8.19399C20.1472 8.19399 21.1667 9.43036 21.1667 10.953ZM9.18001 8.85141C10.4251 8.85141 11.4402 7.61505 11.4402 6.09236C11.4402 4.56968 10.4337 3.33331 9.18001 3.33331C7.92629 3.33331 6.91985 4.56968 6.91985 6.09236C6.91985 7.61505 7.93931 8.85141 9.18001 8.85141ZM15.0365 11.5844L17.4225 15.7621C17.588 16.044 17.7246 16.3419 17.8302 16.6514C17.9614 17.0314 18.0331 17.4294 18.0428 17.8313C18.0174 19.5496 16.6618 20.9527 14.9454 21.0372C13.8842 20.9943 12.8419 20.7422 11.8783 20.2954L11.7005 20.2217C11.2059 20.4559 10.7287 20.6728 10.4424 20.7856C10.0434 20.9559 9.61384 21.043 9.18001 21.0416H9.04987C7.33604 20.9501 5.98795 19.5432 5.9698 17.827C5.96904 17.8155 5.96904 17.8039 5.9698 17.7923C5.97033 17.3933 6.04384 16.9978 6.1867 16.6253C6.28794 16.324 6.41872 16.0334 6.57713 15.7577L8.96311 11.5844C9.75265 10.2092 10.8328 9.45008 11.9998 9.45008C13.1668 9.45008 14.2469 10.2092 15.0365 11.5844Z" fill="#4D4751"/>
</svg>
