<svg width="48" height="48" viewBox="0 0 48 48" fill="none" xmlns="http://www.w3.org/2000/svg">
<path d="M34.5214 27.8541C34.2244 27.6685 33.8669 27.6121 33.5466 27.707C33.2344 27.7936 32.9842 28.0026 32.8701 28.2377C32.6858 28.5347 32.6336 28.8908 32.7243 29.214C32.8123 29.5247 33.0172 29.775 33.2344 29.8795C34.1598 30.4913 34.7112 31.5033 34.7112 32.5855C34.7112 34.3675 33.2757 35.8195 31.5116 35.8195H30.4913V31.6601C30.4913 28.5402 27.9737 26.002 24.8827 26.002H24.6902C23.7662 26.002 23.0017 25.2938 22.9068 24.3946C24.0219 23.2038 24.6586 21.6295 24.6586 19.9575C24.6586 18.2538 24.0219 16.6781 22.8422 15.4571C21.2802 11.2771 19.0499 10.7945 18.9537 10.7628C18.6993 10.6982 18.4119 10.8907 18.3487 11.1478L18.1576 11.9838C17.1057 11.3733 16.0552 11.3403 15.9906 11.3403C15.8311 11.3403 15.6716 11.405 15.5767 11.5342C15.4804 11.6635 15.4488 11.823 15.4804 11.9838L15.9273 14.0106C14.5881 14.5551 13.8868 15.2632 13.7603 15.3925C12.1983 16.8376 11.9426 18.9592 11.8793 19.7636C11.6249 19.9258 11.4008 20.15 11.2743 20.4401C10.9553 21.1152 11.2427 21.8536 11.2743 21.9182C11.9426 23.7511 13.3767 24.6187 14.6527 25.0051V34.5215C14.6527 34.9395 14.5564 34.9395 14.3653 34.9395H14.1412C13.3451 34.9395 12.7084 35.5816 12.7084 36.3846V37.7362C12.7084 38.025 12.9312 38.2505 13.2186 38.2505H29.8038L31.4786 38.256C34.5641 38.256 37.0748 35.726 37.0748 32.6171C37.0748 30.699 36.1261 28.9225 34.5366 27.8651L34.5214 27.8541Z" fill="#4D4751"/>
</svg>
