<svg width="20" height="21" viewBox="0 0 20 21" fill="none" xmlns="http://www.w3.org/2000/svg">
<path d="M17.5669 11.4892L8.51713 20.0887C8.24104 20.3516 7.86635 20.4996 7.47546 20.5C7.08458 20.5004 6.70954 20.3533 6.43284 20.0909C6.15613 19.8286 6.00044 19.4725 6 19.1011C5.99956 18.7296 6.15442 18.3733 6.43051 18.1103L14.4416 10.4978L6.43517 2.88968C6.15908 2.62674 6.00422 2.27035 6.00466 1.89892C6.0051 1.52749 6.16079 1.17144 6.4375 0.909089C6.7142 0.64674 7.08924 0.499586 7.48012 0.500001C7.871 0.500416 8.2457 0.648366 8.52179 0.911302L17.5669 9.51081C17.7042 9.64042 17.8131 9.79455 17.8874 9.96431C17.9617 10.1341 18 10.3161 18 10.5C18 10.6839 17.9617 10.8659 17.8874 11.0357C17.8131 11.2055 17.7042 11.3596 17.5669 11.4892Z" fill="#4D4751"/>
</svg>
