<svg width="20" height="21" viewBox="0 0 20 21" fill="none" xmlns="http://www.w3.org/2000/svg">
<path d="M2.43308 9.51081L11.4829 0.9113C11.759 0.648365 12.1337 0.500416 12.5245 0.500001C12.9154 0.499586 13.2905 0.646739 13.5672 0.909088C13.8439 1.17144 13.9996 1.52749 14 1.89892C14.0004 2.27036 13.8456 2.62674 13.5695 2.88968L5.55836 10.5022L13.5648 18.1103C13.8409 18.3733 13.9958 18.7296 13.9953 19.1011C13.9949 19.4725 13.8392 19.8286 13.5625 20.0909C13.2858 20.3533 12.9108 20.5004 12.5199 20.5C12.129 20.4996 11.7543 20.3516 11.4782 20.0887L2.43308 11.4892C2.29584 11.3596 2.18692 11.2055 2.11259 11.0357C2.03826 10.8659 2 10.6839 2 10.5C2 10.3161 2.03826 10.1341 2.11259 9.96431C2.18692 9.79455 2.29584 9.64042 2.43308 9.51081Z" fill="#4D4751"/>
</svg>
