<svg width="22" height="23" viewBox="0 0 22 23" fill="none" xmlns="http://www.w3.org/2000/svg">
<path d="M11 0.660156C8.82441 0.660156 6.69767 1.30529 4.88873 2.51399C3.07979 3.72269 1.66989 5.44065 0.83733 7.45064C0.00476609 9.46062 -0.213071 11.6724 0.211367 13.8061C0.635804 15.9399 1.68345 17.9 3.22183 19.4383C4.76021 20.9767 6.72022 22.0244 8.85401 22.4488C10.9878 22.8732 13.1995 22.6554 15.2095 21.8228C17.2195 20.9903 18.9375 19.5804 20.1462 17.7714C21.3549 15.9625 22 13.8357 22 11.6602C22 8.74277 20.8411 5.94488 18.7782 3.88198C16.7153 1.81908 13.9174 0.660156 11 0.660156V0.660156ZM15.3038 16.2595C15.0366 16.4344 14.7169 16.5108 14.3995 16.4757C14.0821 16.4406 13.7868 16.2961 13.5644 16.067L10.0788 12.6295C10.0228 12.5724 9.97219 12.5102 9.9275 12.4439L9.88625 12.3683C9.85513 12.3175 9.82756 12.2647 9.80375 12.2102V12.1689C9.7774 12.102 9.7567 12.033 9.74188 11.9627C9.7353 11.8872 9.7353 11.8113 9.74188 11.7358C9.74188 11.7358 9.74188 11.7358 9.74188 11.6945V6.31141C9.74188 5.96405 9.87986 5.63093 10.1255 5.38532C10.3711 5.1397 10.7042 5.00172 11.0516 5.00172C11.3989 5.00172 11.732 5.1397 11.9777 5.38532C12.2233 5.63093 12.3613 5.96405 12.3613 6.31141V10.9727C12.3625 11.0633 12.3996 11.1498 12.4644 11.2133L15.5169 14.252C15.6511 14.3902 15.7533 14.5562 15.8163 14.7383C15.8792 14.9204 15.9012 15.1142 15.8809 15.3057C15.8606 15.4973 15.7983 15.6821 15.6986 15.8469C15.5988 16.0118 15.464 16.1526 15.3038 16.2595Z" fill="#4D4751"/>
</svg>
