<svg width="24" height="25" viewBox="0 0 24 25" fill="none" xmlns="http://www.w3.org/2000/svg">
<path fill-rule="evenodd" clip-rule="evenodd" d="M3.3674 9.27548C2.58635 10.0565 2.58635 11.3229 3.3674 12.1039L12.8544 21.5909C13.6355 22.372 14.9018 22.372 15.6828 21.5909L20.6326 16.6412C21.4136 15.8601 21.4136 14.5938 20.6326 13.8128L20.1023 13.2824L16.5373 16.8474C16.3583 17.0264 16.0681 17.0264 15.8891 16.8474C15.7101 16.6684 15.7101 16.3782 15.8891 16.1992L19.4541 12.6342L18.1577 11.3379L14.5927 14.9029C14.4137 15.0819 14.1235 15.0819 13.9445 14.9029C13.7655 14.7239 13.7655 14.4337 13.9445 14.2547L17.5095 10.6897L16.2132 9.39334L12.6482 12.9583C12.4692 13.1373 12.179 13.1373 12 12.9583C11.821 12.7793 11.821 12.4891 12 12.3102L15.565 8.74515L14.2686 7.44879L10.7036 11.0138C10.5246 11.1928 10.2344 11.1928 10.0555 11.0138C9.87646 10.8348 9.87646 10.5446 10.0555 10.3656L13.6204 6.80061L12.3241 5.50425L8.75909 9.06924C8.5801 9.24824 8.2899 9.24823 8.11091 9.06924C7.93192 8.89025 7.93192 8.60005 8.11091 8.42106L11.6759 4.85607L11.1456 4.32574C10.3645 3.54469 9.0982 3.54469 8.31715 4.32574L3.3674 9.27548Z" fill="#4D4751"/>
</svg>
