<svg width="24" height="25" viewBox="0 0 24 25" fill="none" xmlns="http://www.w3.org/2000/svg">
<path fill-rule="evenodd" clip-rule="evenodd" d="M3.75 12.5C3.75 7.94365 7.44365 4.25 12 4.25C16.5558 4.25 20.25 7.53167 20.25 11.5833C20.25 14.1146 18.198 16.1667 15.6667 16.1667H14.0442C13.2848 16.1667 12.6692 16.7823 12.6692 17.5417C12.6692 17.89 12.8067 18.2108 13.0175 18.4583C13.2375 18.6967 13.375 19.0175 13.375 19.375C13.375 20.1344 12.7594 20.75 12 20.75C7.44365 20.75 3.75 17.0563 3.75 12.5ZM8.33333 7.45833C8.33333 8.21773 8.94894 8.83333 9.70833 8.83333C10.4677 8.83333 11.0833 8.21773 11.0833 7.45833C11.0833 6.69894 10.4677 6.08333 9.70833 6.08333C8.94894 6.08333 8.33333 6.69894 8.33333 7.45833ZM14.2917 8.83333C13.5323 8.83333 12.9167 8.21773 12.9167 7.45833C12.9167 6.69894 13.5323 6.08333 14.2917 6.08333C15.0511 6.08333 15.6667 6.69894 15.6667 7.45833C15.6667 8.21773 15.0511 8.83333 14.2917 8.83333ZM17.0417 12.5C16.2823 12.5 15.6667 11.8844 15.6667 11.125C15.6667 10.3656 16.2823 9.75 17.0417 9.75C17.8011 9.75 18.4167 10.3656 18.4167 11.125C18.4167 11.8844 17.8011 12.5 17.0417 12.5ZM6.95833 12.5C6.19894 12.5 5.58333 11.8844 5.58333 11.125C5.58333 10.3656 6.19894 9.75 6.95833 9.75C7.71773 9.75 8.33333 10.3656 8.33333 11.125C8.33333 11.8844 7.71773 12.5 6.95833 12.5Z" fill="#4D4751"/>
</svg>
