<svg width="48" height="48" viewBox="0 0 48 48" fill="none" xmlns="http://www.w3.org/2000/svg">
<path d="M37.2501 20.8525C37.2501 20.8498 37.2488 20.8498 37.2488 20.8484C37.246 19.802 36.5104 19.043 35.4956 19.043C33.4813 19.043 31.2098 19.6357 29.9406 21.9003C28.27 21.4548 26.4096 21.8618 26.4096 21.8618H25.718H23.9168C22.8869 21.8618 22.4263 21.397 22.4263 20.3617V19.516C22.5885 19.516 22.7521 19.4885 22.8869 19.461C23.7545 19.2713 24.2426 18.7529 24.1065 18.1795C23.7545 16.7055 22.7521 15.0707 22.0193 14.1425L21.9918 14.1164C21.6673 13.7067 21.3428 13.378 20.4476 13.543L18.6051 13.9253C17.5203 13.8153 16.4904 13.9253 16.4368 13.9253C15.136 14.0614 14.4045 14.4148 13.7541 15.1793C13.6455 15.3168 13.1038 16.0785 12.9415 16.2972C12.7793 16.5433 12.6156 16.6519 12.3998 16.7055C11.0715 16.9805 10.2589 17.3064 9.98664 17.6075C9.74326 17.8523 9.52601 18.4793 10.2039 20.1967C10.2314 20.308 11.1801 22.5713 13.5644 22.5713H15.2983V33.7803C15.2983 35.0618 16.3281 36.0985 17.6028 36.0985H17.765C19.0383 36.0985 20.0681 35.0618 20.0681 33.7803V32.1702C20.0681 31.1623 20.9894 30.835 21.5311 30.7525L26.4096 30.0444C26.763 29.9894 27.06 30.153 27.2236 30.2892C27.5481 30.5628 27.7379 31.0248 27.7379 31.462V33.7803C27.7379 35.0618 28.7678 36.0985 30.041 36.0985H30.2033C31.4779 36.0985 32.5078 35.0618 32.5078 33.7803V27.8513V26.4763C32.5078 26.1243 32.5188 25.8039 32.5435 25.5083C32.5435 25.5055 32.5435 25.5028 32.5435 25.5C32.714 23.4224 33.5129 22.6937 35.4145 22.6937C36.4265 22.6937 37.2501 21.8687 37.2501 20.8553V20.8539V20.8525Z" fill="#4D4751"/>
</svg>
