<svg width="22" height="23" viewBox="0 0 22 23" fill="none" xmlns="http://www.w3.org/2000/svg">
<path d="M11 0.660156C8.08259 0.660156 5.28475 1.81908 3.22188 3.88203C1.15892 5.94483 0 8.74282 0 11.6602C0 14.5775 1.15892 17.3754 3.22188 19.4383C5.28468 21.5012 8.08266 22.6602 11 22.6602C13.9173 22.6602 16.7152 21.5012 18.7781 19.4383C20.8411 17.3755 22 14.5775 22 11.6602C22 9.72936 21.4917 7.83242 20.5263 6.1602C19.5608 4.48797 18.1723 3.09947 16.5 2.13383C14.8277 1.16843 12.9308 0.660156 11 0.660156ZM12.21 17.16C12.21 17.5923 11.9794 17.9918 11.605 18.2079C11.2307 18.4241 10.7694 18.4241 10.3951 18.2079C10.0206 17.9918 9.79001 17.5923 9.79001 17.16V10.4721C9.79001 10.0398 10.0207 9.64034 10.3951 9.42411C10.7694 9.20804 11.2307 9.20804 11.605 9.42411C11.9794 9.64033 12.21 10.0398 12.21 10.4721V17.16ZM11 7.26011C10.6033 7.26011 10.2227 7.10251 9.9422 6.822C9.66166 6.54149 9.50409 6.1609 9.50409 5.7642C9.50409 5.36734 9.66169 4.98678 9.9422 4.70624C10.2227 4.42572 10.6033 4.26813 11 4.26813C11.3967 4.26813 11.7773 4.42573 12.0578 4.70624C12.3383 4.98676 12.4959 5.36734 12.4959 5.7642C12.4959 6.1609 12.3383 6.54146 12.0578 6.822C11.7773 7.10254 11.3967 7.26011 11 7.26011Z" fill="#4D4751"/>
</svg>
