<svg width="48" height="48" viewBox="0 0 48 48" fill="none" xmlns="http://www.w3.org/2000/svg">
<path fill-rule="evenodd" clip-rule="evenodd" d="M24.875 21.7501V12.2351C24.875 11.3963 25.6175 10.7363 26.4425 10.8601C31.7775 11.6163 35.875 16.2088 35.875 21.7501H24.875ZM35.875 23.1251C35.875 25.6551 35.0087 27.9926 33.565 29.8488C34.83 30.9763 35.5037 32.7501 35.0225 34.6613C34.5825 36.3938 33.1525 37.7688 31.4062 38.1401C28.5462 38.7451 25.975 36.7926 25.6037 34.1251H22.7437C22.3725 36.8063 19.7875 38.7588 16.9 38.1263C15.1675 37.7413 13.7375 36.3526 13.325 34.6201C12.775 32.3238 13.8888 30.1788 15.7175 29.2026C15.4013 28.7213 12.8025 23.1251 12.8025 23.1251H11.125C10.3687 23.1251 9.75 22.5063 9.75 21.7501C9.75 20.9938 10.3687 20.3751 11.125 20.3751H13.6825C14.205 20.3751 14.7 20.6776 14.92 21.1588L15.855 23.1251H35.875ZM18 35.5001C16.8587 35.5001 15.9375 34.5788 15.9375 33.4376C15.9375 32.2963 16.8587 31.3751 18 31.3751C19.1412 31.3751 20.0625 32.2963 20.0625 33.4376C20.0625 34.5788 19.1412 35.5001 18 35.5001ZM28.3125 33.4376C28.3125 34.5788 29.2337 35.5001 30.375 35.5001C31.5163 35.5001 32.4375 34.5788 32.4375 33.4376C32.4375 32.2963 31.5163 31.3751 30.375 31.3751C29.2337 31.3751 28.3125 32.2963 28.3125 33.4376Z" fill="#4D4751"/>
</svg>
