<svg width="22" height="23" viewBox="0 0 22 23" fill="none" xmlns="http://www.w3.org/2000/svg">
<path d="M1.0638 6.76654L10.18 14.8442C10.4112 15.0359 10.701 15.1406 11 15.1406C11.299 15.1406 11.5888 15.0359 11.82 14.8442L20.9362 6.76654C21.2414 6.54978 21.4951 6.26723 21.6791 5.9393C21.8631 5.61138 21.9727 5.24626 22 4.87031V4.81805C21.9942 3.97976 21.661 3.17771 21.0731 2.58634C20.4851 1.99496 19.6899 1.6621 18.8603 1.66016H3.14708C2.31625 1.66014 1.51912 1.99212 0.929557 2.58371C0.339998 3.17529 0.00585092 3.97847 0 4.81805V4.87031C0.0346032 5.24441 0.147308 5.60685 0.330679 5.93371C0.514049 6.26056 0.763919 6.54442 1.0638 6.76654Z" fill="#4D4751"/>
<path d="M20.818 10.3798L13.5487 16.8225C12.8383 17.4361 11.9345 17.7732 11 17.7732C10.0655 17.7732 9.16169 17.4361 8.45131 16.8225L1.182 10.3798C0.531901 9.80499 0 10.0439 0 10.9173V18.4948C0.00390659 19.3357 0.337197 20.1408 0.926965 20.734C1.51673 21.3272 2.31498 21.6602 3.14708 21.6602H18.8603C19.6911 21.6582 20.4875 21.3243 21.0757 20.7313C21.6638 20.1383 21.9961 19.3344 22 18.4948V10.9173C22 10.0439 21.4681 9.80499 20.818 10.3798Z" fill="#4D4751"/>
</svg>
