<svg width="48" height="48" viewBox="0 0 48 48" fill="none" xmlns="http://www.w3.org/2000/svg">
<path fill-rule="evenodd" clip-rule="evenodd" d="M27.7294 19.0272C29.5969 19.0272 31.1196 17.1726 31.1196 14.8886C31.1196 12.6046 29.5904 10.75 27.7294 10.75C25.8683 10.75 24.3391 12.6046 24.3391 14.8886C24.3391 17.1726 25.8488 19.0272 27.7294 19.0272ZM16.5305 22.1831C16.5305 19.8991 15.0078 18.0446 13.1402 18.0446C11.2727 18.0446 9.75 19.8991 9.75 22.1831C9.75 24.4672 11.2727 26.3152 13.1402 26.3152C15.0078 26.3152 16.5305 24.4607 16.5305 22.1831ZM37.25 22.1796C37.25 24.4636 35.7273 26.3182 33.8598 26.3182C31.9792 26.3182 30.4695 24.4636 30.4695 22.1796C30.4695 19.8956 31.9987 18.041 33.8598 18.041C35.7208 18.041 37.25 19.8956 37.25 22.1796ZM19.27 19.0272C21.1376 19.0272 22.6603 17.1726 22.6603 14.8886C22.6603 12.6046 21.1506 10.75 19.27 10.75C17.3894 10.75 15.8798 12.6046 15.8798 14.8886C15.8798 17.1726 17.409 19.0272 19.27 19.0272ZM28.0547 23.1267L31.6337 29.3931C31.882 29.816 32.087 30.263 32.2454 30.7271C32.4422 31.2971 32.5497 31.8942 32.5642 32.497C32.5262 35.0745 30.4927 37.1791 27.9181 37.3059C26.3263 37.2415 24.7628 36.8634 23.3175 36.1931L23.0507 36.0825C22.3089 36.4339 21.5931 36.7593 21.1636 36.9284C20.5651 37.1839 19.9208 37.3146 19.27 37.3124H19.0748C16.5041 37.1752 14.4819 35.0648 14.4547 32.4905C14.4536 32.4732 14.4536 32.4558 14.4547 32.4385C14.4555 31.84 14.5658 31.2468 14.7801 30.688C14.9319 30.236 15.1281 29.8001 15.3657 29.3866L18.9447 23.1267C20.129 21.0639 21.7493 19.9251 23.4997 19.9251C25.2501 19.9251 26.8704 21.0639 28.0547 23.1267Z" fill="#4D4751"/>
</svg>
