<svg width="22" height="23" viewBox="0 0 22 23" fill="none" xmlns="http://www.w3.org/2000/svg">
<g clip-path="url(#clip0_516_90984)">
<path d="M20.9211 21.0729C21.5383 20.5148 21.9194 19.7486 21.9886 18.9266C22.0578 18.1047 21.8101 17.2872 21.2947 16.6367C20.7343 15.96 20.0635 15.3501 19.4436 14.7235C19.0794 14.2588 18.6146 13.8798 18.0829 13.6139C17.5512 13.348 16.9661 13.2019 16.3699 13.1863C15.536 13.236 14.7356 13.5266 14.0688 14.0218C13.733 14.2633 13.4452 14.5635 13.2197 14.9073C13.0074 15.2415 12.8546 15.5924 12.3706 15.4587C11.6828 15.2666 10.9526 14.1805 10.4601 13.7043C9.96759 13.2281 9.61096 12.8689 9.23736 12.4595C8.59204 11.7828 7.92973 11.1228 7.30989 10.421C7.05515 10.1286 6.8174 9.80277 7.09761 9.42682C7.37781 9.05087 7.75142 9.10935 8.02313 8.92555C8.37897 8.66506 8.66943 8.32783 8.87224 7.93973C10.3157 5.38327 8.32032 2.55111 6.0617 1.25617C5.3448 0.779431 4.47499 0.578179 3.61729 0.690597C2.75958 0.803015 1.97365 1.22128 1.4086 1.86605C0.26795 3.41002 -0.208 5.33422 0.08399 7.22125C0.440615 9.72758 2.09637 11.2732 3.72666 12.9942C4.76257 14.0886 5.78149 15.2081 6.84288 16.2775C8.21843 17.6643 9.62795 19.0344 11.046 20.3795C13.4914 22.7772 18.2039 23.7046 20.9211 21.0729Z" fill="#4D4751"/>
</g>
<defs>
<clipPath id="clip0_516_90984">
<rect width="22" height="22" fill="white" transform="translate(0 0.660156)"/>
</clipPath>
</defs>
</svg>
