<svg width="24" height="25" viewBox="0 0 24 25" fill="none" xmlns="http://www.w3.org/2000/svg">
<path fill-rule="evenodd" clip-rule="evenodd" d="M6.72946 5.4691C8.06389 4.11527 9.88148 3.34701 11.7824 3.33334H11.7881C13.689 3.34853 15.506 4.11824 16.8393 5.47315C18.1727 6.82806 18.9132 8.65716 18.8979 10.558C18.9027 12.6274 18.022 14.6001 16.4781 15.978C15.867 16.5636 15.3251 17.2173 14.8631 17.9264L13.3227 20.5761C12.4721 22.0302 11.0869 22.0302 10.242 20.5761L8.69016 17.9092C8.23115 17.2063 7.69312 16.5584 7.08659 15.978C5.54179 14.5983 4.6611 12.6235 4.66686 10.5523C4.65309 8.65142 5.39503 6.82293 6.72946 5.4691ZM8.33381 10.5121C8.33381 12.4166 9.87778 13.9606 11.7824 13.9606C13.6869 13.9606 15.2309 12.4166 15.2309 10.5121C15.2309 8.60749 13.6869 7.06352 11.7824 7.06352C9.87778 7.06352 8.33381 8.60749 8.33381 10.5121Z" fill="#4D4751"/>
</svg>
