<svg width="36" height="36" viewBox="0 0 36 36" fill="none" xmlns="http://www.w3.org/2000/svg">
<path d="M17.5848 30C18.9914 30 20.1316 28.8598 20.1316 27.4532C20.1316 26.0467 18.9914 24.9065 17.5848 24.9065C16.1783 24.9065 15.0381 26.0467 15.0381 27.4532C15.0381 28.8598 16.1783 30 17.5848 30Z" fill="#777279"/>
<path d="M13.455 14.662H11.8489C11.5249 14.663 11.2113 14.5478 10.965 14.3373C10.7187 14.1268 10.5561 13.835 10.5067 13.5148C10.4345 11.8418 10.9474 10.196 11.9571 8.86014C12.9669 7.5243 14.4104 6.58192 16.0396 6.19498C17.6688 5.80805 19.3819 6.00072 20.8845 6.73989C22.387 7.47906 23.5852 8.71855 24.273 10.2453C24.6556 11.1221 24.8619 12.0657 24.8799 13.0222C24.8979 13.9786 24.7273 14.9293 24.3779 15.8199C24.0285 16.7104 23.5071 17.5235 22.8434 18.2125C22.1798 18.9016 21.387 19.4532 20.5102 19.8358L19.8792 20.0767V21.7746C19.8792 22.1366 19.7354 22.4838 19.4794 22.7399C19.2234 22.9959 18.8761 23.1397 18.5141 23.1397H16.8277C16.4656 23.1397 16.1184 22.9959 15.8624 22.7399C15.6064 22.4838 15.4625 22.1366 15.4625 21.7746V17.4267C15.4625 17.0646 15.6064 16.7174 15.8624 16.4614C16.1184 16.2054 16.4656 16.0616 16.8277 16.0616H17.6652C18.2301 16.0593 18.7817 15.8895 19.2502 15.5738C19.7187 15.258 20.083 14.8104 20.2971 14.2876C20.5112 13.7648 20.5655 13.1902 20.453 12.6366C20.3406 12.0829 20.0665 11.575 19.6654 11.1771C19.2643 10.7793 18.7542 10.5092 18.1997 10.4013C17.6451 10.2933 17.071 10.3521 16.5499 10.5704C16.0289 10.7887 15.5842 11.1566 15.2722 11.6276C14.9602 12.0986 14.7949 12.6516 14.7972 13.2165V13.3657C14.7825 13.7127 14.6349 14.0408 14.3851 14.282C14.1353 14.5233 13.8023 14.6594 13.455 14.662Z" fill="#777279"/>
</svg>
