<svg width="36" height="36" viewBox="0 0 36 36" fill="none" xmlns="http://www.w3.org/2000/svg">
<path d="M15.6021 7.49239C15.6021 7.09659 15.7611 6.71699 16.0442 6.43711C16.3272 6.15723 16.7112 6 17.1115 6H18.9635C19.3638 6 19.7477 6.15723 20.0308 6.43711C20.3138 6.71699 20.4729 7.09659 20.4729 7.49239V20.6593C20.4771 20.8585 20.4413 21.0565 20.3675 21.2418C20.2937 21.4271 20.1834 21.5961 20.0429 21.7389C19.9025 21.8817 19.7347 21.9955 19.5494 22.0736C19.3641 22.1518 19.1649 22.1927 18.9635 22.194H17.1115C16.712 22.1913 16.3297 22.0332 16.0473 21.7539C15.7648 21.4746 15.6049 21.0966 15.6021 20.7017V7.49239ZM18 29.9947C17.615 30.0182 17.2291 29.9634 16.8663 29.8339C16.5034 29.7044 16.1713 29.5027 15.8902 29.2414C15.6091 28.9802 15.3852 28.6648 15.2321 28.3147C15.079 27.9645 15 27.5872 15 27.2057C15 26.8243 15.079 26.4469 15.2321 26.0968C15.3852 25.7467 15.6091 25.4313 15.8902 25.17C16.1713 24.9087 16.5034 24.7071 16.8663 24.5776C17.2291 24.448 17.615 24.3933 18 24.4168C18.385 24.3933 18.7709 24.448 19.1337 24.5776C19.4966 24.7071 19.8287 24.9087 20.1098 25.17C20.3909 25.4313 20.6148 25.7467 20.7679 26.0968C20.921 26.4469 21 26.8243 21 27.2057C21 27.5872 20.921 27.9645 20.7679 28.3147C20.6148 28.6648 20.3909 28.9802 20.1098 29.2414C19.8287 29.5027 19.4966 29.7044 19.1337 29.8339C18.7709 29.9634 18.385 30.0182 18 29.9947Z" fill="#E76E3C"/>
</svg>
