<svg width="24" height="25" viewBox="0 0 24 25" fill="none" xmlns="http://www.w3.org/2000/svg">
<path fill-rule="evenodd" clip-rule="evenodd" d="M12.4308 10.7675C11.5417 10.1258 10.4325 9.75 9.25 9.75C6.21243 9.75 3.75 12.2124 3.75 15.25C3.75 18.2876 6.21243 20.75 9.25 20.75C12.2876 20.75 14.75 18.2876 14.75 15.25C14.75 14.0583 14.3742 12.9583 13.7325 12.0417L18.4167 7.37583V11.5833H20.25V4.25H12.9167V6.08333H17.115L12.4308 10.7675ZM5.58333 15.25C5.58333 13.225 7.22496 11.5833 9.25 11.5833C11.275 11.5833 12.9167 13.225 12.9167 15.25C12.9167 17.275 11.275 18.9167 9.25 18.9167C7.22496 18.9167 5.58333 17.275 5.58333 15.25Z" fill="#4D4751"/>
</svg>
