<svg width="24" height="25" viewBox="0 0 24 25" fill="none" xmlns="http://www.w3.org/2000/svg">
<path fill-rule="evenodd" clip-rule="evenodd" d="M19.3333 3.33331C20.3459 3.33331 21.1667 4.15412 21.1667 5.16665V19.8333C21.1667 20.8458 20.3459 21.6666 19.3333 21.6666C18.3208 21.6666 17.5 20.8458 17.5 19.8333V5.16665C17.5 4.15412 18.3208 3.33331 19.3333 3.33331ZM19.3333 4.24998C18.8271 4.24998 18.4167 4.66039 18.4167 5.16665V19.8333C18.4167 20.3396 18.8271 20.75 19.3333 20.75C19.8396 20.75 20.25 20.3396 20.25 19.8333V5.16665C20.25 4.66039 19.8396 4.24998 19.3333 4.24998ZM5.58333 14.3333C6.59586 14.3333 7.41667 15.1541 7.41667 16.1666V19.8333C7.41667 20.8458 6.59586 21.6666 5.58333 21.6666C4.57081 21.6666 3.75 20.8458 3.75 19.8333V16.1666C3.75 15.1541 4.57081 14.3333 5.58333 14.3333ZM5.58333 15.25C5.07707 15.25 4.66667 15.6604 4.66667 16.1666V19.8333C4.66667 20.3396 5.07707 20.75 5.58333 20.75C6.08959 20.75 6.5 20.3396 6.5 19.8333V16.1666C6.5 15.6604 6.08959 15.25 5.58333 15.25ZM16.5833 8.83331C16.5833 7.82079 15.7625 6.99998 14.75 6.99998C13.7375 6.99998 12.9167 7.82079 12.9167 8.83331V19.8333C12.9167 20.8458 13.7375 21.6666 14.75 21.6666C15.7625 21.6666 16.5833 20.8458 16.5833 19.8333V8.83331ZM13.8333 8.83331C13.8333 8.32705 14.2437 7.91665 14.75 7.91665C15.2563 7.91665 15.6667 8.32705 15.6667 8.83331V19.8333C15.6667 20.3396 15.2563 20.75 14.75 20.75C14.2437 20.75 13.8333 20.3396 13.8333 19.8333V8.83331ZM12 12.5C12 11.4875 11.1792 10.6666 10.1667 10.6666C9.15414 10.6666 8.33333 11.4875 8.33333 12.5V19.8333C8.33333 20.8458 9.15414 21.6666 10.1667 21.6666C11.1792 21.6666 12 20.8458 12 19.8333V12.5Z" fill="#4D4751"/>
</svg>
